name C:\Users\u0101727\Documents\MyRepositories\upper-imu-dc\Results\main_mocap_tracking\Case_8\FLX01_angularVelocities.mot
datacolumns 4
datarows 58
range 2.01000000 2.58000000
endheader 
time	radius_imu_x	radius_imu_y	radius_imu_z	
          2.01000000	         -0.83656108	          0.04751472	         -0.85938078	
          2.02000000	         -0.84943382	          0.22182191	         -0.85448557	
          2.03000000	         -0.86349208	          0.42850290	         -0.85034484	
          2.04000000	         -0.87559832	          0.63282143	         -0.84602549	
          2.05000000	         -0.88329361	          0.80165648	         -0.84046185	
          2.06000000	         -0.88541030	          0.91228816	         -0.83283294	
          2.07000000	         -0.88223300	          0.95730641	         -0.82283168	
          2.08000000	         -0.87512598	          0.94331053	         -0.81070255	
          2.09000000	         -0.86577349	          0.88396966	         -0.79703272	
          2.10000000	         -0.85538616	          0.79121684	         -0.78241245	
          2.11000000	         -0.84434360	          0.67046542	         -0.76718888	
          2.12000000	         -0.83253198	          0.52363198	         -0.75150536	
          2.13000000	         -0.82011710	          0.35746402	         -0.73560076	
          2.14000000	         -0.80817897	          0.19043105	         -0.72014584	
          2.15000000	         -0.79880015	          0.05317290	         -0.70639987	
          2.16000000	         -0.79454267	         -0.01824199	         -0.69608644	
          2.17000000	         -0.79749153	          0.00606090	         -0.69099724	
          2.18000000	         -0.80824449	          0.13777566	         -0.69245253	
          2.19000000	         -0.82537631	          0.36400666	         -0.70086653	
          2.20000000	         -0.84573393	          0.65030893	         -0.71564520	
          2.21000000	         -0.86538784	          0.95116847	         -0.73543110	
          2.22000000	         -0.88067950	          1.22180053	         -0.75850436	
          2.23000000	         -0.88891249	          1.42642776	         -0.78313389	
          2.24000000	         -0.88858150	          1.54183786	         -0.80778267	
          2.25000000	         -0.87928002	          1.55738111	         -0.83117300	
          2.26000000	         -0.86147654	          1.47308976	         -0.85227372	
          2.27000000	         -0.83628929	          1.29718297	         -0.87026181	
          2.28000000	         -0.80528569	          1.04367297	         -0.88449788	
          2.29000000	         -0.77029524	          0.73042611	         -0.89453400	
          2.30000000	         -0.73327680	          0.37791111	         -0.90013568	
          2.31000000	         -0.69625753	          0.00887135	         -0.90133242	
          2.32000000	         -0.66133037	         -0.35118236	         -0.89850039	
          2.33000000	         -0.63065572	         -0.67338041	         -0.89243695	
          2.34000000	         -0.60635917	         -0.92597909	         -0.88437382	
          2.35000000	         -0.59024583	         -1.07713000	         -0.87587229	
          2.36000000	         -0.58334061	         -1.10051081	         -0.86857511	
          2.37000000	         -0.58537594	         -0.98308381	         -0.86384158	
          2.38000000	         -0.59445509	         -0.73233135	         -0.86235952	
          2.39000000	         -0.60717637	         -0.37865347	         -0.86390372	
          2.40000000	         -0.61933895	          0.03006750	         -0.86739410	
          2.41000000	         -0.62696024	          0.43979749	         -0.87123526	
          2.42000000	         -0.62712537	          0.80205509	         -0.87375521	
          2.43000000	         -0.61839052	          1.08180626	         -0.87356827	
          2.44000000	         -0.60076997	          1.26062789	         -0.86978887	
          2.45000000	         -0.57546729	          1.33598252	         -0.86209647	
          2.46000000	         -0.54450305	          1.31793483	         -0.85068952	
          2.47000000	         -0.51035306	          1.22482525	         -0.83617581	
          2.48000000	         -0.47565038	          1.07918479	         -0.81944337	
          2.49000000	         -0.44294134	          0.90445348	         -0.80153375	
          2.50000000	         -0.41446785	          0.72244346	         -0.78351592	
          2.51000000	         -0.39197067	          0.55138775	         -0.76636491	
          2.52000000	         -0.37653770	          0.40460763	         -0.75086228	
          2.53000000	         -0.36852580	          0.28991149	         -0.73753588	
          2.54000000	         -0.36757107	          0.20976823	         -0.72664117	
          2.55000000	         -0.37268122	          0.16217665	         -0.71817557	
          2.56000000	         -0.38238513	          0.14201102	         -0.71192102	
          2.57000000	         -0.39491891	          0.14253732	         -0.70749966	
          2.58000000	         -0.40843588	          0.15680665	         -0.70443077	
